<svg width="24" height="24" viewBox="0 0 24 24" xmlns="http://www.w3.org/2000/svg">
    <g fill="#959598" fill-rule="evenodd">
        <path d="M1.5 1a.5.5 0 0 0-.5.5v18a.5.5 0 0 0 .5.5h18a.5.5 0 0 0 .5-.5v-18a.5.5 0 0 0-.5-.5h-18zm18 20h-18C.673 21 0 20.327 0 19.5v-18C0 .673.673 0 1.5 0h18c.827 0 1.5.673 1.5 1.5v18c0 .827-.673 1.5-1.5 1.5z"/>
        <path d="M22.5 24h-18c-.827 0-1.5-.673-1.5-1.5a.5.5 0 0 1 1 0 .5.5 0 0 0 .5.5h18a.5.5 0 0 0 .5-.5v-18a.5.5 0 0 0-.5-.5.5.5 0 0 1 0-1c.827 0 1.5.673 1.5 1.5v18c0 .827-.673 1.5-1.5 1.5"/>
    </g>
</svg>
